<?xml version="1.0" encoding="UTF-8"?>
<svg version="1.1" xmlns="http://www.w3.org/2000/svg" width="512" height="512">
<path d="M0 0 C4.22904053 2.84588111 7.79934427 5.76004875 11.125 9.625 C11.125 10.285 11.125 10.945 11.125 11.625 C11.785 11.625 12.445 11.625 13.125 11.625 C13.38539063 11.03460938 13.64578125 10.44421875 13.9140625 9.8359375 C18.66872306 1.15484758 29.47473232 -3.38719499 38.3671875 -6.515625 C52.70963078 -9.79560163 67.5587079 -8.11967477 80.17578125 -0.54296875 C88.33689681 5.05606452 94.75692179 11.71412045 99.125 20.625 C99.125 21.615 99.125 22.605 99.125 23.625 C100.10597656 23.56699219 101.08695312 23.50898437 102.09765625 23.44921875 C118.62698696 22.77185487 132.04682338 27.7146121 144.5859375 38.80078125 C155.50156773 49.88405768 161.40920361 64.43067332 161.30078125 79.88085938 C161.28402344 80.80705078 161.26726562 81.73324219 161.25 82.6875 C161.24097656 83.64849609 161.23195313 84.60949219 161.22265625 85.59960938 C161.19935208 87.94167805 161.16664058 90.28319792 161.125 92.625 C161.84042969 92.88152344 162.55585938 93.13804687 163.29296875 93.40234375 C176.75188836 98.57349397 191.65535237 108.0925677 199.4375 120.76171875 C200.56040896 123.80505724 200.4107893 126.42415979 200.125 129.625 C199.568125 130.24375 199.01125 130.8625 198.4375 131.5 C196.87619549 133.49383024 196.87619549 133.49383024 197.48828125 135.55078125 C198.29388279 137.94279813 199.19152997 140.28003295 200.125 142.625 C202.05244048 147.970078 203.52285941 152.96487845 204.125 158.625 C204.846875 158.521875 205.56875 158.41875 206.3125 158.3125 C209.125 158.625 209.125 158.625 211.9375 160.5 C214.60801558 164.31502226 214.85204908 166.67148907 214.61328125 171.2421875 C213.84829486 174.97532111 212.24050686 176.54799543 209.125 178.625 C206.44921875 178.7421875 206.44921875 178.7421875 204.125 178.625 C203.86976563 179.98431641 203.86976563 179.98431641 203.609375 181.37109375 C202.29892117 187.95821538 200.97071869 193.85763366 197.69921875 199.7578125 C196.89447086 201.68436385 196.89447086 201.68436385 197.95703125 203.7421875 C198.53517578 204.67417969 198.53517578 204.67417969 199.125 205.625 C200.6797669 208.73453379 200.41144437 211.18766761 200.125 214.625 C194.48338242 224.24434795 185.68672689 232.02961908 176.125 237.625 C176.32996094 238.32625 176.53492188 239.0275 176.74609375 239.75 C181.84700697 257.71302455 181.1249427 274.53325891 173.125 291.625 C163.71177829 308.46971254 150.14302149 319.85459433 131.625 325.5 C121.00901077 327.99879279 110.96753171 327.79965358 100.3046875 326.09765625 C97.00134985 325.52697795 97.00134985 325.52697795 93.125 325.625 C90.99660669 327.57298559 90.99660669 327.57298559 88.875 330.125 C81.22780731 338.14884546 69.82782268 344.57213669 58.5625 344.86328125 C42.41130055 345.19548172 29.63757954 342.91755097 17.10546875 331.83984375 C15.73260976 330.47984526 14.41966855 329.05963272 13.125 327.625 C10.07853221 328.98789349 8.00745987 330.55523645 5.625 332.875 C-6.610216 343.82952049 -20.74997375 345.50278596 -36.44970703 344.8203125 C-41.43164222 344.41910975 -45.50313085 342.96446175 -49.875 340.625 C-50.70773438 340.2125 -51.54046875 339.8 -52.3984375 339.375 C-57.51946157 336.60176851 -61.08687376 333.43840022 -65 329.125 C-67.40401615 326.53045045 -67.40401615 326.53045045 -69.875 324.625 C-73.34370011 324.72804816 -73.34370011 324.72804816 -75.50390625 325.75390625 C-88.38754116 330.48710326 -104.51334452 327.1785533 -116.765625 322.11328125 C-134.10002021 313.81629058 -146.13536891 300.5478844 -152.875 282.625 C-157.39665149 267.58281125 -156.61451039 252.52060409 -151.875 237.625 C-152.55304688 237.16351563 -153.23109375 236.70203125 -153.9296875 236.2265625 C-173.24286458 222.69128881 -185.42014063 204.93109528 -189.875 181.625 C-190.28608893 177.34359475 -190.35352263 173.11154364 -190.3125 168.8125 C-190.30347656 167.67248535 -190.29445312 166.5324707 -190.28515625 165.35791016 C-189.89379127 146.25440699 -182.83057721 128.74484514 -169.875 114.625 C-169.21113281 113.86960937 -168.54726562 113.11421875 -167.86328125 112.3359375 C-159.35347745 103.18121326 -148.66415617 96.6750007 -136.875 92.625 C-136.89071045 92.05168945 -136.9064209 91.47837891 -136.92260742 90.88769531 C-137.37663136 71.78420703 -135.52635073 56.669502 -122.8125 41.375 C-113.28665349 31.44483063 -100.47270211 23.89547698 -86.50390625 23.39453125 C-82.61963174 23.34064193 -78.75504198 23.44569126 -74.875 23.625 C-74.73771484 22.55378906 -74.73771484 22.55378906 -74.59765625 21.4609375 C-72.48527265 13.17125915 -64.80142791 5.39362507 -57.875 0.625 C-39.40196507 -10.02967435 -18.52121451 -11.16720287 0 0 Z " fill="#FD7C96" transform="translate(243.875,87.375)"/>
<path d="M0 0 C8.7956456 5.37418953 14.36179757 11.06687142 17.05859375 21.2578125 C17.36338623 25.21612341 17.35233515 29.16621233 17.34912109 33.13476562 C17.35583832 34.32569321 17.36255554 35.51662079 17.36947632 36.74363708 C17.38518398 39.99775313 17.39182914 43.25171572 17.39310789 46.5058651 C17.39453275 48.54119832 17.39880855 50.57650504 17.40410233 52.61183167 C17.42258045 59.71861462 17.43077531 66.82532273 17.42919922 73.93212891 C17.42799689 80.54763239 17.4491225 87.16281011 17.48068655 93.77823114 C17.50686098 99.46758633 17.51756611 105.15683514 17.5162884 110.84625006 C17.51577931 114.24019186 17.52143344 117.63384363 17.5426445 121.02772522 C17.5622199 124.8123795 17.55649916 128.59619181 17.54443359 132.38085938 C17.55567261 133.50000229 17.56691162 134.6191452 17.57849121 135.77220154 C17.52847559 141.94006434 17.14856096 145.54377087 13.05859375 150.2578125 C12.60355469 150.84820312 12.14851562 151.43859375 11.6796875 152.046875 C9.32185167 153.80814996 6.9933586 154.08605257 4.12109375 154.6328125 C0.27325304 155.53079709 -1.6311343 155.996902 -4.69140625 158.5703125 C-6.51863616 162.49885681 -6.59867841 165.4376742 -5.12890625 169.5078125 C-3.89726497 171.55954417 -3.89726497 171.55954417 -0.94140625 173.2578125 C1.56392533 173.57591677 1.56392533 173.57591677 4.30859375 173.5078125 C5.67757812 173.51554687 5.67757812 173.51554687 7.07421875 173.5234375 C10.5763253 173.21173168 13.694417 172.25625812 17.05859375 171.2578125 C17.15226047 185.94879331 17.22268191 200.6397343 17.26584244 215.3309536 C17.28642017 222.15319204 17.31444824 228.97524435 17.36035156 235.79736328 C17.40465582 242.38500155 17.42775325 248.97249774 17.43810272 255.56029129 C17.44547527 258.06961733 17.45987206 260.57893319 17.48151398 263.08817673 C17.5106856 266.61158567 17.51454385 270.13420395 17.51269531 273.65771484 C17.52707642 274.68774628 17.54145752 275.71777771 17.55627441 276.77902222 C17.50445764 285.94774432 15.11391934 293.92521641 8.76171875 300.7265625 C1.3652229 307.37662298 -6.61173108 309.88293163 -16.4921875 309.69140625 C-25.6777251 308.5367124 -32.71247933 303.58915509 -38.3828125 296.45703125 C-43.79938162 288.81410289 -43.87233473 281.51704734 -42.94140625 272.2578125 C-41.63136679 268.09397815 -39.35564128 264.87916505 -36.94140625 261.2578125 C-36.40485044 258.19097245 -36.40975085 255.32590723 -36.94140625 252.2578125 C-39.58864637 248.9688172 -41.23287173 248.37375451 -45.37890625 247.6953125 C-49.78085175 248.39035653 -52.1986553 249.85589212 -54.94140625 253.2578125 C-60.11473602 261.8466832 -62.22628765 269.69851519 -62.56640625 279.6328125 C-62.60507813 280.55964844 -62.64375 281.48648437 -62.68359375 282.44140625 C-62.77728216 284.7133502 -62.86299973 286.98529846 -62.94140625 289.2578125 C-70.41410317 292.83608468 -79.64182016 292.29676318 -87.5625 290.3828125 C-100.29088926 285.8251796 -111.00062781 276.92835194 -116.87890625 264.6328125 C-119.73613142 258.18226348 -120.0928115 251.74575704 -120.12890625 244.7578125 C-120.14308594 243.51 -120.15726563 242.2621875 -120.171875 240.9765625 C-119.9278793 237.03954713 -119.15740053 233.98750247 -117.94140625 230.2578125 C-116.64203125 230.4228125 -115.34265625 230.5878125 -114.00390625 230.7578125 C-109.0267903 231.23624402 -104.06337771 231.46788712 -99.06640625 231.5703125 C-98.32914307 231.59996094 -97.59187988 231.62960937 -96.83227539 231.66015625 C-93.37158059 231.69818151 -91.32507089 231.52523338 -88.453125 229.5234375 C-86.74108884 226.9575952 -86.47941303 225.7418812 -86.62890625 222.6953125 C-86.66564453 221.54869141 -86.66564453 221.54869141 -86.703125 220.37890625 C-86.88774927 218.07154469 -86.88774927 218.07154469 -87.94140625 215.2578125 C-91.88011284 213.09694411 -95.45100442 213.0350992 -99.87890625 212.9453125 C-115.47869019 212.22644616 -129.22672327 204.95619165 -139.87890625 193.6953125 C-151.88434919 179.50706175 -155.95365022 163.95562743 -155.16796875 145.82275391 C-153.79204039 130.24570289 -144.30330117 116.73080022 -133.0078125 106.5078125 C-123.07682995 98.57954369 -111.70590331 94.45113027 -99.19140625 93.1953125 C-93.48765791 92.64434476 -93.48765791 92.64434476 -87.94140625 91.2578125 C-86.58608181 87.19183917 -86.42646205 83.50802358 -86.94140625 79.2578125 C-88.14636544 76.55222388 -88.14636544 76.55222388 -90.94140625 75.2578125 C-94.27077606 74.65247253 -97.56237505 74.38678316 -100.94140625 74.2578125 C-103.85694495 64.04157528 -101.37640687 55.07258865 -96.7265625 45.84765625 C-92.08391808 38.00226003 -84.66980642 32.25639171 -76.06640625 29.2578125 C-65.16910173 26.63694179 -55.72380497 27.8185796 -45.94140625 33.2578125 C-41.15319173 36.35910221 -37.31172527 39.63969477 -33.87890625 44.1953125 C-32.2709895 46.17840982 -31.43651226 47.11242423 -28.97265625 47.8359375 C-25.5369613 48.0154141 -23.01637434 47.29373471 -19.94140625 45.8203125 C-17.44498211 42.62176906 -17.09060612 40.68841981 -17.33984375 36.6875 C-19.67378015 27.26082182 -29.92141434 20.34811392 -37.74609375 15.53125 C-38.83277344 14.90089844 -38.83277344 14.90089844 -39.94140625 14.2578125 C-37.77811487 7.37461265 -32.05773249 2.76516256 -25.94140625 -0.7421875 C-17.52083263 -4.08017732 -8.10884792 -4.25528533 0 0 Z " fill="#FD7C96" transform="translate(228.94140625,102.7421875)"/>
<path d="M0 0 C4.22904053 2.84588111 7.79934427 5.76004875 11.125 9.625 C11.125 10.285 11.125 10.945 11.125 11.625 C11.785 11.625 12.445 11.625 13.125 11.625 C13.38539063 11.03460938 13.64578125 10.44421875 13.9140625 9.8359375 C18.66872306 1.15484758 29.47473232 -3.38719499 38.3671875 -6.515625 C52.70963078 -9.79560163 67.5587079 -8.11967477 80.17578125 -0.54296875 C88.33689681 5.05606452 94.75692179 11.71412045 99.125 20.625 C99.125 21.615 99.125 22.605 99.125 23.625 C100.10597656 23.56699219 101.08695312 23.50898437 102.09765625 23.44921875 C118.62698696 22.77185487 132.04682338 27.7146121 144.5859375 38.80078125 C155.50156773 49.88405768 161.40920361 64.43067332 161.30078125 79.88085938 C161.28402344 80.80705078 161.26726562 81.73324219 161.25 82.6875 C161.24097656 83.64849609 161.23195313 84.60949219 161.22265625 85.59960938 C161.19935208 87.94167805 161.16664058 90.28319792 161.125 92.625 C161.84042969 92.88152344 162.55585938 93.13804687 163.29296875 93.40234375 C176.73229557 98.56596608 191.68509943 108.09047608 199.43359375 120.765625 C200.58246398 123.85524211 200.46758943 126.37040037 200.125 129.625 C197.98820715 133.01439556 196.9475233 134.35082557 193.125 135.625 C185.98830935 136.31564748 185.98830935 136.31564748 182.625 133.625 C181.8 132.635 180.975 131.645 180.125 130.625 C167.39192712 116.6010165 152.14753005 110.56057078 133.5859375 109.375 C129.30703083 108.44774257 127.76155142 107.0743229 125.125 103.625 C124.21817789 100.50979934 124.43970139 97.78308443 125.125 94.625 C127 91.5625 127 91.5625 130.125 89.625 C133.50253234 89.23310312 136.74272566 89.32946147 140.125 89.625 C140.09532669 75.44115757 138.79620915 64.76154387 129.125 53.625 C120.41917162 46.40066058 111.83878607 43.99144955 100.62109375 44.28125 C89.40967737 45.38360156 80.87753671 51.04215488 73.6875 59.5 C73.00880859 60.36238281 73.00880859 60.36238281 72.31640625 61.2421875 C70.14427744 63.76328127 68.71426091 63.66540057 65.3125 64 C61.96415436 63.93291111 61.09308382 63.60438747 58.125 61.6875 C55.8331118 58.17804619 55.26839236 56.15771664 55.515625 52.0234375 C57.60729559 43.79083657 66.27461827 36.72997922 73.1875 32.3046875 C74.80973572 31.36928545 76.46416588 30.49001777 78.125 29.625 C77.815625 28.861875 77.50625 28.09875 77.1875 27.3125 C76.44606407 25.43710323 75.76271783 23.53815348 75.125 21.625 C73.34565685 20.55973724 73.34565685 20.55973724 71.125 19.625 C70.28066406 19.12742187 69.43632812 18.62984375 68.56640625 18.1171875 C60.10721008 13.36534596 52.79845866 11.88529836 43.29296875 14.36328125 C34.73620647 17.48066241 29.20217214 22.45588335 25.125 30.625 C22.55823785 36.47836144 22.82939287 42.22968637 22.83447266 48.50195312 C22.82775543 49.69288071 22.82103821 50.88380829 22.81411743 52.11082458 C22.79840977 55.36494063 22.79176461 58.61890322 22.79048586 61.8730526 C22.789061 63.90838582 22.7847852 65.94369254 22.77949142 67.97901917 C22.7610133 75.08580212 22.75281844 82.19251023 22.75439453 89.29931641 C22.75559686 95.91481989 22.73447125 102.52999761 22.7029072 109.14541864 C22.67673277 114.83477383 22.66602764 120.52402264 22.66730535 126.21343756 C22.66781444 129.60737936 22.66216031 133.00103113 22.64094925 136.39491272 C22.62137385 140.179567 22.62709459 143.96337931 22.63916016 147.74804688 C22.62792114 148.86718979 22.61668213 149.9863327 22.60510254 151.13938904 C22.65477381 157.26478758 22.94646509 161.00635918 27.125 165.625 C30.41175086 167.71656873 33.42399473 168.72036614 37.1875 169.5 C41.36771001 170.48688259 43.58512413 172.05329956 46.125 175.625 C46.68419321 179.53935244 46.47957139 181.82721437 44.875 185.4375 C42.97859836 187.80800205 41.91456475 188.52578447 39.125 189.625 C36.50390625 189.890625 36.50390625 189.890625 33.6875 189.875 C32.76066406 189.88015625 31.83382812 189.8853125 30.87890625 189.890625 C27.95634048 189.60873213 25.81402578 188.76096181 23.125 187.625 C23.03132982 202.1855964 22.96091016 216.74615262 22.91775131 231.30698967 C22.8971743 238.06869487 22.86914765 244.83021226 22.82324219 251.59179688 C22.77893521 258.12107762 22.75583994 264.6502368 22.74549103 271.1796608 C22.73811894 273.66665842 22.72372306 276.15364578 22.70207977 278.64056015 C22.67290468 282.13283808 22.66905004 285.62431839 22.67089844 289.11669922 C22.65651733 290.13737991 22.64213623 291.15806061 22.62731934 292.20967102 C22.67437522 300.4639717 24.73124469 306.96396246 29.25 313.875 C36.29531902 320.6140008 43.45497115 323.94624369 53.140625 323.84375 C61.99220677 323.19494296 69.20678423 319.90149738 75.3125 313.4375 C80.81213637 306.60986744 81.67938324 299.32224584 81.48828125 290.72265625 C80.82645826 285.07936993 78.24576342 281.30614513 75.125 276.625 C74.28928458 271.92739966 74.49724702 268.58624676 77.125 264.5625 C80.22195497 262.56238325 82.36194598 261.81719095 86.07421875 262.08984375 C91.03172436 263.38351664 93.9982477 266.78284942 96.6015625 271.0390625 C97.89328821 273.53942046 99.06407096 276.01837284 100.125 278.625 C100.48722656 279.50414062 100.84945313 280.38328125 101.22265625 281.2890625 C102.4573541 285.85370305 102.58875743 290.29037339 102.75 295 C102.78867187 295.92683594 102.82734375 296.85367187 102.8671875 297.80859375 C102.96087591 300.0805377 103.04659348 302.35248596 103.125 304.625 C109.97878852 308.05189426 122.20636899 305.76714471 129.28125 303.72265625 C142.18044183 298.74370995 150.02790652 289.66731288 155.99609375 277.51953125 C158.15512376 271.98374841 158.30697115 266.50769248 158.3125 260.625 C158.32474609 259.93921875 158.33699219 259.2534375 158.34960938 258.546875 C158.36209379 254.18565105 157.726477 250.67616712 156.125 246.625 C154.990625 246.79 153.85625 246.955 152.6875 247.125 C147.92195726 247.62663608 143.1632135 247.87290196 138.375 248 C137.2758728 248.05704102 137.2758728 248.05704102 136.15454102 248.11523438 C132.19384658 248.17671759 130.34364897 247.78970408 127.1484375 245.3828125 C125.11782052 242.61521485 124.44081365 241.48678447 124.5 238.125 C124.48066406 237.02671875 124.48066406 237.02671875 124.4609375 235.90625 C125.48936577 232.37329642 127.25140257 230.86855736 130.125 228.625 C133.5859375 227.875 133.5859375 227.875 137.5 227.625 C154.525221 226.07510968 168.56880303 219.38218742 180.125 206.625 C180.929375 205.635 181.73375 204.645 182.5625 203.625 C185.81965872 201.08282734 187.92015825 200.9687337 191.96875 201.19140625 C195.15512361 201.83214442 196.92830678 203.29101346 199.125 205.625 C200.6797669 208.73453379 200.41144437 211.18766761 200.125 214.625 C194.48338242 224.24434795 185.68672689 232.02961908 176.125 237.625 C176.32996094 238.32625 176.53492188 239.0275 176.74609375 239.75 C181.84700697 257.71302455 181.1249427 274.53325891 173.125 291.625 C163.71177829 308.46971254 150.14302149 319.85459433 131.625 325.5 C121.00901077 327.99879279 110.96753171 327.79965358 100.3046875 326.09765625 C97.00134985 325.52697795 97.00134985 325.52697795 93.125 325.625 C90.99660669 327.57298559 90.99660669 327.57298559 88.875 330.125 C81.22780731 338.14884546 69.82782268 344.57213669 58.5625 344.86328125 C42.41130055 345.19548172 29.63757954 342.91755097 17.10546875 331.83984375 C15.73260976 330.47984526 14.41966855 329.05963272 13.125 327.625 C10.07853221 328.98789349 8.00745987 330.55523645 5.625 332.875 C-6.610216 343.82952049 -20.74997375 345.50278596 -36.44970703 344.8203125 C-41.43164222 344.41910975 -45.50313085 342.96446175 -49.875 340.625 C-50.70773438 340.2125 -51.54046875 339.8 -52.3984375 339.375 C-57.51946157 336.60176851 -61.08687376 333.43840022 -65 329.125 C-67.40401615 326.53045045 -67.40401615 326.53045045 -69.875 324.625 C-73.34370011 324.72804816 -73.34370011 324.72804816 -75.50390625 325.75390625 C-88.38754116 330.48710326 -104.51334452 327.1785533 -116.765625 322.11328125 C-134.10002021 313.81629058 -146.13536891 300.5478844 -152.875 282.625 C-157.39665149 267.58281125 -156.61451039 252.52060409 -151.875 237.625 C-152.55304688 237.16351563 -153.23109375 236.70203125 -153.9296875 236.2265625 C-173.24286458 222.69128881 -185.42014063 204.93109528 -189.875 181.625 C-190.28608893 177.34359475 -190.35352263 173.11154364 -190.3125 168.8125 C-190.30347656 167.67248535 -190.29445312 166.5324707 -190.28515625 165.35791016 C-189.89379127 146.25440699 -182.83057721 128.74484514 -169.875 114.625 C-169.21113281 113.86960937 -168.54726562 113.11421875 -167.86328125 112.3359375 C-159.35347745 103.18121326 -148.66415617 96.6750007 -136.875 92.625 C-136.89071045 92.05168945 -136.9064209 91.47837891 -136.92260742 90.88769531 C-137.37663136 71.78420703 -135.52635073 56.669502 -122.8125 41.375 C-113.28665349 31.44483063 -100.47270211 23.89547698 -86.50390625 23.39453125 C-82.61963174 23.34064193 -78.75504198 23.44569126 -74.875 23.625 C-74.73771484 22.55378906 -74.73771484 22.55378906 -74.59765625 21.4609375 C-72.48527265 13.17125915 -64.80142791 5.39362507 -57.875 0.625 C-39.40196507 -10.02967435 -18.52121451 -11.16720287 0 0 Z M-43.875 16.625 C-44.52339844 17.01042969 -45.17179687 17.39585938 -45.83984375 17.79296875 C-49.96634674 20.48871806 -52.58883724 23.24318804 -54.875 27.625 C-53.5976308 31.45710759 -52.33238495 31.73311712 -48.875 33.6875 C-42.52018486 37.57007635 -36.26879573 42.83740855 -32.875 49.625 C-32.46161354 52.68405981 -32.40838829 55.57032102 -32.875 58.625 C-35.53099561 62.02799438 -37.43995264 62.52348895 -41.625 63.5 C-44.73468235 63.360239 -45.73695077 62.75457689 -48.0390625 60.59375 C-49.5489459 58.82243803 -51.04179046 57.03649595 -52.51953125 55.23828125 C-56.08419077 51.28345999 -60.14335149 48.9676299 -64.875 46.625 C-65.51953125 46.28597656 -66.1640625 45.94695312 -66.828125 45.59765625 C-74.91668054 41.91022652 -85.14375235 42.5838974 -93.3984375 45.4609375 C-104.30172614 50.58582711 -110.74304904 58.03672482 -115.25 69 C-117.55207523 75.79159954 -117.84893927 82.7081884 -115.875 89.625 C-115.19953125 89.65078125 -114.5240625 89.6765625 -113.828125 89.703125 C-106.6945122 90.15670732 -106.6945122 90.15670732 -103.25 92.125 C-101.19043845 95.86965736 -101.40493433 99.44064498 -101.875 103.625 C-102.37 105.11 -102.37 105.11 -102.875 106.625 C-113.23695055 108.61991758 -113.23695055 108.61991758 -118.1875 108.9375 C-133.41053392 110.54422451 -147.1427717 119.12327565 -156.875 130.625 C-167.88946313 145.19251575 -171.4545321 160.74292643 -169.875 178.625 C-167.06691684 194.41702647 -157.1654696 209.0585094 -144.109375 218.25 C-133.37876314 224.85345345 -123.96346194 227.7715127 -111.3984375 228.28125 C-108.09360288 228.60367289 -105.77469147 229.02963072 -102.875 230.625 C-101.96869145 233.34392564 -101.65298422 235.23843987 -101.5625 238.0625 C-101.50642578 239.20525391 -101.50642578 239.20525391 -101.44921875 240.37109375 C-102.07168502 243.66616751 -103.13036048 244.71193886 -105.875 246.625 C-108.73115887 246.94861883 -111.16217862 247.05162067 -114 246.9375 C-114.75466553 246.92203125 -115.50933105 246.9065625 -116.28686523 246.890625 C-121.8509513 246.74760469 -127.35233834 246.32629037 -132.875 245.625 C-136.90674796 258.07222187 -135.66420643 270.83938612 -130.3125 282.625 C-124.51974806 293.64946253 -115.15787602 300.81539692 -103.75 305.5 C-99.43458138 306.80699955 -95.10298193 306.90208093 -90.625 306.9375 C-89.93905762 306.94313965 -89.25311523 306.9487793 -88.54638672 306.95458984 C-84.5644627 306.89721902 -81.46073274 306.36922271 -77.875 304.625 C-77.86082031 303.33207031 -77.84664063 302.03914063 -77.83203125 300.70703125 C-77.517656 286.81967181 -76.32059626 274.8384719 -65.875 264.625 C-62.77451072 263.07475536 -60.29605782 263.33507985 -56.875 263.625 C-53.9375 265.0625 -53.9375 265.0625 -51.875 267.625 C-50.89848988 271.66600529 -51.15077306 275.135309 -52.97265625 278.8828125 C-53.83629348 280.24751039 -54.73801842 281.58917936 -55.68359375 282.8984375 C-59.4809151 288.4014409 -58.43455461 296.25122281 -57.875 302.625 C-55.52219877 310.63296471 -50.42847705 316.74988789 -43.4375 321.1640625 C-35.53801185 325.27455197 -27.73078175 326.08690367 -19.07421875 323.92578125 C-10.16273044 320.72089092 -4.04034015 315.11168556 0.125 306.625 C2.57843559 300.93797919 2.39390598 295.55838357 2.35205078 289.47900391 C2.35234283 288.3662207 2.35263489 287.2534375 2.35293579 286.10693359 C2.35154537 282.43839653 2.33599741 278.77006398 2.3203125 275.1015625 C2.31658136 272.55423087 2.31373486 270.00689779 2.31173706 267.45956421 C2.30488781 261.44609197 2.28913388 255.43270716 2.26903808 249.41926992 C2.24664944 242.57042014 2.23567821 235.72156678 2.22564721 228.87268949 C2.20476674 214.79008592 2.16960931 200.70754697 2.125 186.625 C1.03082764 186.94807129 -0.06334473 187.27114258 -1.19067383 187.60400391 C-6.15588312 188.97995681 -10.76275744 189.3055521 -15.875 188.625 C-18.53063802 186.7281157 -19.44742527 185.48014945 -20.875 182.625 C-21.25771632 179.18055312 -21.09339976 177.09455948 -19.625 173.9375 C-16.5557 171.35649773 -14.86623094 171.04147408 -11 170.25 C-5.61772786 169.11308537 -3.0877259 167.66900455 0.13671875 163.24609375 C1.99321028 160.20086061 2.25513683 158.33705261 2.27217102 154.77549744 C2.27932632 153.7508136 2.28648163 152.72612976 2.29385376 151.6703949 C2.29654266 150.54158401 2.29923157 149.41277313 2.30200195 148.24975586 C2.31185875 146.47146896 2.31185875 146.47146896 2.32191467 144.65725708 C2.34168893 140.71812589 2.35332266 136.77900802 2.36328125 132.83984375 C2.36732928 131.48233075 2.37144622 130.12481796 2.37563133 128.76730537 C2.39469081 122.38516074 2.40891653 116.00302767 2.4172433 109.62086004 C2.42699917 102.26527795 2.45327186 94.90999812 2.49374419 87.55452245 C2.52397727 81.86351555 2.53871922 76.17259488 2.54202431 70.48150927 C2.54436795 67.08571598 2.55323682 63.69024528 2.57848549 60.2945385 C2.60286353 56.49811766 2.60191331 52.70248121 2.5949707 48.90600586 C2.60778076 47.79136459 2.62059082 46.67672333 2.63378906 45.52830505 C2.56594688 35.32413214 -0.79881371 27.05824156 -7.875 19.625 C-18.46034172 11.28375072 -32.15935861 9.58644441 -43.875 16.625 Z " fill="#010000" transform="translate(243.875,87.375)"/>
<path d="M0 0 C4.37758112 2.34513274 4.37758112 2.34513274 6 5 C6.7940712 8.48477288 6.96512904 11.54925932 6 15 C1.94938125 20.38105211 -3.79970991 22.58675567 -9.8125 25.3125 C-11.28106445 25.9940918 -11.28106445 25.9940918 -12.77929688 26.68945312 C-15.18185913 27.80283563 -17.58859578 28.90593402 -20 30 C-19.30132812 30.44730469 -18.60265625 30.89460938 -17.8828125 31.35546875 C-16.51769531 32.26232422 -16.51769531 32.26232422 -15.125 33.1875 C-14.22007812 33.77917969 -13.31515625 34.37085938 -12.3828125 34.98046875 C-9.73163107 37.22745366 -8.90501694 38.678117 -8 42 C-8.07027763 45.93554728 -8.35796238 48.1902352 -10.82421875 51.30078125 C-15.11942155 55.36507567 -20.59115013 57.89708701 -25.75 60.6875 C-35.03211583 65.73491865 -35.03211583 65.73491865 -44.109375 71.13671875 C-45.23714355 71.83631714 -45.23714355 71.83631714 -46.38769531 72.55004883 C-47.74627084 73.40222051 -49.09556944 74.26946318 -50.43261719 75.1550293 C-55.16798476 78.09993763 -59.44856285 78.91167296 -65 78 C-67.87029869 76.20606332 -69.49131638 75.01736724 -71 72 C-71.69074492 65.09255079 -71.69074492 65.09255079 -69.20703125 61.1640625 C-65.15205489 56.607974 -59.59984415 54.00485966 -54.3125 51.125 C-53.25482422 50.53203125 -52.19714844 49.9390625 -51.10742188 49.328125 C-43.30383245 45 -43.30383245 45 -41 45 C-41 44.34 -41 43.68 -41 43 C-41.70125 42.7525 -42.4025 42.505 -43.125 42.25 C-48.45626484 39.93205877 -52.65036786 37.482475 -55 32 C-55.4072779 28.74177683 -55.26428609 26.66288595 -54.04882812 23.61425781 C-51.0190189 19.74829056 -47.23377419 18.22876714 -42.84375 16.171875 C-41.94507202 15.73740051 -41.04639404 15.30292603 -40.1204834 14.85528564 C-37.25325996 13.47333 -34.37687006 12.11174093 -31.5 10.75 C-29.56318846 9.81898379 -27.62698282 8.88670599 -25.69140625 7.953125 C-22.15001611 6.25130524 -18.60737932 4.55235703 -15.05664062 2.87011719 C-14.34399048 2.53212097 -13.63134033 2.19412476 -12.89709473 1.84588623 C-8.62226658 -0.06019585 -4.62725438 -0.73199504 0 0 Z " fill="#000000" transform="translate(506,89)"/>
<path d="M0 0 C4.64631823 1.69155494 9.06333156 3.82862964 13.5 6 C14.75204734 6.60133274 16.00457333 7.20166985 17.25756836 7.80102539 C19.72137189 8.98265342 22.18036578 10.17354889 24.63623047 11.37158203 C27.50508864 12.76041089 30.38620335 14.10922518 33.28515625 15.43359375 C34.71133344 16.10071671 36.1371553 16.76860023 37.5625 17.4375 C38.1915625 17.71787109 38.820625 17.99824219 39.46875 18.28710938 C43.75456869 20.36198985 45.38590527 22.55837761 47 27 C47.38086764 29.88520279 47.0193534 32.27421522 46 35 C42.73783449 38.33630564 39.12418637 40.82334608 35 43 C34.34 43 33.68 43 33 43 C33 43.66 33 44.32 33 45 C33.72832031 45.28069336 34.45664062 45.56138672 35.20703125 45.85058594 C39.63737154 47.67384136 43.78907559 49.9736597 48 52.25 C48.88945313 52.71535156 49.77890625 53.18070313 50.6953125 53.66015625 C55.93549777 56.4992417 59.69308925 58.98891438 63 64 C63.89117557 67.06099434 63.47019022 68.70866849 63 72 C61.20636089 74.8100346 59.98119065 76.50940468 57 78 C47.97965253 79.24868446 41.93343919 75.14264501 34.5 70.625 C33.25559125 69.8859263 32.01022196 69.1484676 30.76391602 68.41259766 C28.3022306 66.95639617 25.84681327 65.49036357 23.39501953 64.01757812 C20.45272794 62.26904528 17.49129394 60.5774284 14.49609375 58.921875 C13.71105469 58.48278809 12.92601563 58.04370117 12.1171875 57.59130859 C10.71285685 56.80766441 9.3030319 56.0337468 7.88671875 55.27197266 C3.62534763 52.84026062 1.6693522 50.61670662 0 46 C0 41.67218705 0.44324248 39.68401638 3.1875 36.3125 C6.01256811 33.98966622 8.94557425 32.00671125 12 30 C11.31897217 29.68772461 10.63794434 29.37544922 9.9362793 29.05371094 C6.84813529 27.63015637 3.76786173 26.19031191 0.6875 24.75 C-0.38435547 24.25886719 -1.45621094 23.76773438 -2.56054688 23.26171875 C-3.58857422 22.77832031 -4.61660156 22.29492188 -5.67578125 21.796875 C-6.62364502 21.35698242 -7.57150879 20.91708984 -8.5480957 20.46386719 C-11.15654057 18.90654015 -12.43375944 17.58094754 -14 15 C-14.83700564 11.00962426 -15.10102846 6.81891515 -12.93359375 3.23828125 C-9.07776017 -0.42843787 -4.99637678 -0.87407295 0 0 Z " fill="#000000" transform="translate(14,89)"/>
<path d="M0 0 C3.63783011 0.94383565 5.2000477 2.51320082 7.2734375 5.58984375 C8.7972726 9.97086966 8.15523764 12.61195603 6.28076172 16.78857422 C4.61537882 19.76656623 2.30518658 21.88966212 -0.1640625 24.21484375 C-3.64034477 27.5161295 -6.8148623 30.77641134 -9.7265625 34.58984375 C-8.62248047 34.82767578 -8.62248047 34.82767578 -7.49609375 35.0703125 C3.13544 37.61233048 3.13544 37.61233048 6.2734375 42.58984375 C7.40508039 45.88816876 7.28105088 48.25582889 6.2734375 51.58984375 C3.74694625 55.63966061 0.80722325 59.22711982 -2.27685547 62.86181641 C-4.16148527 65.10826466 -5.95894771 67.41624306 -7.75634766 69.73266602 C-9.11066538 71.47656515 -10.47735091 73.21004936 -11.84765625 74.94140625 C-13.89511756 77.5299874 -15.92525914 80.1312905 -17.94921875 82.73828125 C-19.02055289 84.10568851 -20.092161 85.47288119 -21.1640625 86.83984375 C-21.66019043 87.48421387 -22.15631836 88.12858398 -22.66748047 88.79248047 C-26.03756593 93.06463046 -28.2057655 95.26104414 -33.6015625 95.96484375 C-37.62762816 95.48171587 -39.63813427 94.18693113 -42.7265625 91.58984375 C-44.56423218 88.63359252 -44.7341824 86.8992117 -44.6484375 83.41796875 C-43.42716142 78.34656808 -40.921805 75.51993358 -37.5390625 71.65234375 C-36.39822795 70.31118021 -35.25890068 68.96873305 -34.12109375 67.625 C-33.28118896 66.64104248 -33.28118896 66.64104248 -32.42431641 65.63720703 C-29.72796415 62.38560939 -27.22021909 58.99812479 -24.7265625 55.58984375 C-25.52320313 55.50347656 -26.31984375 55.41710938 -27.140625 55.328125 C-38.52039891 53.81912822 -38.52039891 53.81912822 -42.7265625 48.58984375 C-43.68859287 45.85856212 -44.12417166 43.46570178 -43.7265625 40.58984375 C-41.71676825 36.55720464 -38.97649482 33.49306965 -35.9140625 30.21484375 C-35.44121826 29.70663086 -34.96837402 29.19841797 -34.48120117 28.67480469 C-33.45126 27.56888561 -32.41936021 26.46478807 -31.38574219 25.36230469 C-29.64130821 23.49876868 -27.90594986 21.62708306 -26.171875 19.75390625 C-23.77818511 17.16887578 -21.36962705 14.59907763 -18.94921875 12.0390625 C-17.03983295 10.01609499 -15.21150075 7.98271363 -13.41015625 5.859375 C-9.30369397 1.17220089 -6.36201841 -0.55790008 0 0 Z " fill="#000000" transform="translate(404.7265625,-0.58984375)"/>
<path d="M0 0 C5.09664987 1.08300309 7.98428746 4.81364875 11.35302734 8.56640625 C12.06007813 9.31019531 12.76712891 10.05398438 13.49560547 10.8203125 C17.45782053 15.01989528 21.24635563 19.3658559 25.02905273 23.7265625 C26.5479018 25.43416306 28.1096811 27.07061098 29.72021484 28.69140625 C30.18943359 29.1709375 30.65865234 29.65046875 31.14208984 30.14453125 C32.08597823 31.104239 33.04213847 32.05200851 34.00927734 32.98828125 C37.96603972 37.09977735 38.51270445 40.05912208 38.66552734 45.56640625 C37.06880686 49.34811266 35.10363169 51.39621345 31.66552734 53.56640625 C28.64990234 54.296875 28.64990234 54.296875 25.41552734 54.75390625 C24.33787109 54.91246094 23.26021484 55.07101563 22.14990234 55.234375 C21.33005859 55.34394531 20.51021484 55.45351563 19.66552734 55.56640625 C20.02791504 56.00919922 20.39030273 56.45199219 20.76367188 56.90820312 C22.44095652 58.95958149 24.11574847 61.01298172 25.79052734 63.06640625 C26.36029297 63.7625 26.93005859 64.45859375 27.51708984 65.17578125 C30.39566569 68.70857889 33.24532339 72.26276424 36.02880859 75.87109375 C36.5113208 76.49483887 36.99383301 77.11858398 37.4909668 77.76123047 C39.40416273 80.70161101 39.72969262 83.10148157 39.66552734 86.56640625 C38.41897221 90.16756551 37.3120125 92.04222909 34.35302734 94.44140625 C31.09617126 95.80474136 29.16882566 96.06687744 25.66552734 95.56640625 C20.88099204 92.84821657 17.72267294 89.55030117 14.47802734 85.19140625 C13.51868857 83.93597118 12.55904436 82.68076947 11.59912109 81.42578125 C11.11427246 80.78576172 10.62942383 80.14574219 10.12988281 79.48632812 C8.25743304 77.03135229 6.34405033 74.61050228 4.42529297 72.19165039 C3.04938635 70.4526034 1.68667903 68.70385556 0.32568359 66.953125 C-1.41955511 64.71253801 -3.20350278 62.51412674 -5.02587891 60.3359375 C-11.8900548 51.86045271 -11.8900548 51.86045271 -12.20947266 46.62890625 C-11.83284914 43.61045983 -11.19782503 42.34965484 -9.52197266 39.69140625 C-5.08886444 36.73600077 -0.5019546 35.67954159 4.66552734 34.56640625 C3.45316406 33.26316406 3.45316406 33.26316406 2.21630859 31.93359375 C1.13680248 30.76960454 0.05737985 29.6055379 -1.02197266 28.44140625 C-1.55242187 27.87164063 -2.08287109 27.301875 -2.62939453 26.71484375 C-13.33447266 15.15598639 -13.33447266 15.15598639 -13.33447266 9.56640625 C-10.79062482 1.93486275 -7.82816279 -0.17051725 0 0 Z " fill="#000000" transform="translate(112.33447265625,-0.56640625)"/>
<path d="M0 0 C1.12100098 0.62688721 2.24200195 1.25377441 3.39697266 1.8996582 C4.00940826 2.23914993 4.62184387 2.57864166 5.25283813 2.92842102 C6.5413914 3.64537423 7.82704141 4.36756809 9.10986328 5.09472656 C11.04312361 6.19028913 12.9845665 7.26993341 14.92822266 8.34692383 C34.2769114 19.12729725 34.2769114 19.12729725 37.68603516 24.51293945 C38.24288998 28.80867666 37.97029497 30.97487623 35.93603516 34.82543945 C33.80005689 37.37674682 32.61497379 38.20230095 29.68603516 39.51293945 C30.18530518 39.76462891 30.6845752 40.01631836 31.19897461 40.27563477 C33.47075177 41.4280276 35.73457463 42.59527024 37.99853516 43.76293945 C38.78421875 44.15868164 39.56990234 44.55442383 40.37939453 44.9621582 C47.8546491 48.84292866 47.8546491 48.84292866 49.68603516 52.51293945 C50.34668016 55.59044412 50.29133259 58.42592252 49.68603516 61.51293945 C47.5044437 64.26863392 45.81426022 65.94882692 42.68603516 67.51293945 C36.2192742 67.54109899 30.96416498 65.68531636 25.25634766 62.8371582 C24.49933563 62.47072708 23.74232361 62.10429596 22.96237183 61.72676086 C21.37777995 60.95577515 19.79642246 60.17810869 18.21826172 59.39404297 C15.80457131 58.19723441 13.37937368 57.02669804 10.95166016 55.85864258 C9.40664381 55.10300354 7.86234607 54.34589302 6.31884766 53.5871582 C5.59698273 53.23908615 4.8751178 52.8910141 4.13137817 52.53239441 C0.45463642 50.68801263 -2.27824176 49.161243 -4.31396484 45.51293945 C-5.19656194 41.06814865 -4.88368616 37.50467656 -2.62646484 33.57543945 C-0.24925792 31.45522787 1.65645944 30.43864314 4.68603516 29.51293945 C2.56649719 27.22817311 0.49714791 25.68852315 -2.22021484 24.1730957 C-2.96400391 23.74963867 -3.70779297 23.32618164 -4.47412109 22.88989258 C-6.03235174 22.01452594 -7.5922497 21.14212059 -9.15380859 20.27270508 C-16.44731717 16.10769455 -16.44731717 16.10769455 -18.31396484 12.51293945 C-19.15327748 6.00826656 -19.15327748 6.00826656 -17.29443359 2.6965332 C-12.23274647 -3.64969084 -7.04580904 -3.16163421 0 0 Z " fill="#000000" transform="translate(462.31396484375,337.487060546875)"/>
<path d="M0 0 C2.96042112 2.58249502 4.59480753 4.1801882 5.4453125 8 C5.63236938 11.29220117 5.24075368 13.60088962 3.5390625 16.421875 C0.07385382 19.94039458 -3.83237591 21.92611978 -8.1875 24.1875 C-9.8294215 25.05106677 -11.46888692 25.91932482 -13.10546875 26.79296875 C-14.19057739 27.35794067 -14.19057739 27.35794067 -15.29760742 27.93432617 C-17.16619053 28.89834341 -17.16619053 28.89834341 -18 31 C-17.2575 31.226875 -16.515 31.45375 -15.75 31.6875 C-12.26941769 33.34868701 -10.92777747 34.64423922 -9 38 C-8.38589658 41.13306465 -8.14839404 43.91094486 -9 47 C-12.6776659 51.24083415 -16.43027874 53.56847837 -21.390625 55.953125 C-22.09467468 56.29881531 -22.79872437 56.64450562 -23.52410889 57.00067139 C-25.00750952 57.72507515 -26.49351152 58.44417371 -27.98193359 59.15820312 C-30.23788959 60.24417032 -32.48023126 61.35516146 -34.72265625 62.46875 C-36.17372547 63.17342912 -37.62552637 63.87660397 -39.078125 64.578125 C-39.73782288 64.90725891 -40.39752075 65.23639282 -41.07720947 65.57550049 C-45.85744056 67.83335106 -50.66392829 69.20627532 -56 69 C-61.39759036 66.20481928 -61.39759036 66.20481928 -63 63 C-63.23828125 61.01171875 -63.23828125 61.01171875 -63.3125 58.6875 C-63.34988281 57.92824219 -63.38726562 57.16898437 -63.42578125 56.38671875 C-62.80712886 52.91885995 -61.50144407 51.48187095 -59 49 C-56.34813341 47.3407691 -53.58351721 46.00663743 -50.75 44.6875 C-50.00492188 44.32849609 -49.25984375 43.96949219 -48.4921875 43.59960938 C-46.66674422 42.72199241 -44.8340658 41.85945177 -43 41 C-43.96164063 40.37738281 -44.92328125 39.75476563 -45.9140625 39.11328125 C-50.06564748 36.27023381 -50.06564748 36.27023381 -51 33 C-51.57236734 28.58459484 -51.48900192 26.68712279 -48.87768555 23.01782227 C-46.14809006 19.91953062 -43.16309837 18.05577846 -39.51953125 16.08984375 C-38.90663742 15.75505508 -38.29374359 15.42026642 -37.66227722 15.07533264 C-35.71852697 14.01748303 -33.76584992 12.97749478 -31.8125 11.9375 C-30.52217853 11.23744749 -29.2324595 10.53628338 -27.94335938 9.83398438 C-24.31001546 7.86127097 -20.6584796 5.92572006 -17 4 C-16.00315186 3.47124268 -15.00630371 2.94248535 -13.97924805 2.39770508 C-13.09922119 1.94161865 -12.21919434 1.48553223 -11.3125 1.015625 C-10.56226563 0.62536133 -9.81203125 0.23509766 -9.0390625 -0.16699219 C-5.60601132 -1.56947909 -3.42126514 -1.27458897 0 0 Z " fill="#000000" transform="translate(63,336)"/>
<path d="M0 0 C4.63167751 2.65557822 7.48653933 5.52542743 10.625 9.8125 C11.48003594 10.964831 12.33688944 12.115815 13.1953125 13.265625 C13.64422852 13.86955078 14.09314453 14.47347656 14.55566406 15.09570312 C17.62068499 19.13680577 20.85214688 23.04985693 24.06494141 26.97387695 C30.4666253 34.88165132 30.4666253 34.88165132 29.9375 40.5 C29.46018905 44.00219722 29.1931713 44.80174525 26.625 47.4375 C25.325625 48.2109375 25.325625 48.2109375 24 49 C23.01 49.66 22.02 50.32 21 51 C21.47050781 51.51949219 21.94101562 52.03898437 22.42578125 52.57421875 C30.67431532 61.81326002 30.67431532 61.81326002 31.4375 66.9375 C30.88393677 70.8124426 29.40826469 72.95425348 27 76 C23.42472605 77.78763697 19.88899361 77.7122468 16 77 C12.78203729 75.22710994 10.50142543 72.66240825 8 70 C6.8777947 68.8370557 5.75538099 67.67431248 4.6328125 66.51171875 C1.02013707 62.73524687 -2.50734186 58.88746155 -6 55 C-7.21623047 53.65035156 -7.21623047 53.65035156 -8.45703125 52.2734375 C-11.34323087 48.85232105 -12.85688147 46.76763577 -13.6875 42.3125 C-12.84617889 38.25886193 -11.78853183 36.07453509 -9 33 C-5.25 31.625 -5.25 31.625 -2 31 C-4.36839043 27.30531093 -6.87858502 23.9378217 -9.6875 20.5625 C-12.68413369 16.72165337 -14.18966931 14.02623681 -14 9 C-12.75344487 5.39884074 -11.64648516 3.52417716 -8.6875 1.125 C-5.43064391 -0.23833511 -3.50329831 -0.50047119 0 0 Z " fill="#000000" transform="translate(364,435)"/>
<path d="M0 0 C3.08095872 2.61881491 3.85615133 4.51451074 5 8.375 C5 16.00316784 -0.74790303 21.35239381 -5.390625 26.9609375 C-7.1032578 28.69788245 -7.1032578 28.69788245 -7 30 C-5.9275 30.20625 -4.855 30.4125 -3.75 30.625 C0.82346667 32.30193778 1.94138454 33.63573522 4 38 C4.75 41.25 4.75 41.25 4 45 C0.15804867 51.05008316 -4.93361716 56.0940861 -10.05859375 61.05859375 C-12.02388295 63.02388295 -13.82483047 65.07081715 -15.625 67.1875 C-22.95423104 75.5566895 -22.95423104 75.5566895 -27.19921875 76.4765625 C-31.61569367 76.75396092 -33.4468881 76.43788026 -37 73.625 C-39.90664016 69.81003479 -40.4628138 67.81326348 -40 63 C-37.32751493 58.1689693 -33.65182038 54.1143843 -30 50 C-31.84666084 48.76889277 -33.71787668 47.57269245 -35.625 46.4375 C-38.55485635 43.43054217 -39.10680448 41.53214938 -39.30078125 37.3984375 C-38.70672223 32.66139545 -35.94450894 29.62200657 -33 26 C-31.98299085 24.73053449 -30.96607134 23.46099717 -29.94921875 22.19140625 C-27.69458747 19.3914964 -25.42019731 16.60913273 -23.1328125 13.8359375 C-20.1236905 10.17803517 -17.25222569 6.43144008 -14.46484375 2.6015625 C-10.35863758 -1.88788958 -5.51529727 -1.55117736 0 0 Z " fill="#000000" transform="translate(157,436)"/>
<path d="M0 0 C2.91269772 1.8578656 5.42832709 3.85665419 7 7 C8.03700332 15.84002828 5.45136883 22.46042808 1.3125 30.125 C-5.55861494 38.66746722 -13.27470613 43.68333652 -24 46 C-31.0772317 46.56168506 -31.0772317 46.56168506 -34.875 44.25 C-38.11931699 40.81484084 -39.02497233 39.37347797 -38.9375 34.5625 C-37.773273 30.13843739 -36.72493119 28.66066514 -33 26 C-30.49103001 25.3476678 -27.99635051 24.92686883 -25.4375 24.515625 C-20.93930048 23.56408279 -18.06885517 21.28999762 -15.1875 17.8125 C-14.02506919 15.05937439 -13.87258188 13.48485204 -13.75 10.5625 C-13.43937989 6.77166686 -12.61672264 5.02695723 -9.8125 2.4375 C-6.44929181 -0.01970108 -4.19716355 -0.98231487 0 0 Z " fill="#040202" transform="translate(163,233)"/>
<path d="M0 0 C3.97397136 2.1817882 5.51642288 3.48437302 6.90234375 7.828125 C7.38420288 9.94309588 7.85036776 12.06170362 8.30078125 14.18359375 C9.48876918 18.96872947 11.60375428 21.12328757 15.6875 23.6875 C18.467745 24.78910651 20.65853923 25.32046678 23.5625 25.8125 C26.8380732 26.48867585 28.80407177 27.24373713 31.125 29.6875 C33 33 33 33 33.125 36.5625 C31.81411814 40.56797235 30.21780258 42.33157835 27 45 C22.58235007 47.20882497 17.68611974 46.46396583 13.08984375 45.19921875 C1.84642779 40.9774974 -5.51483095 34.13377379 -10.94140625 23.48046875 C-13.22163499 18.13749735 -13.8353012 12.76539413 -13 7 C-9.98835786 1.39250214 -6.27441978 -0.72397151 0 0 Z " fill="#040202" transform="translate(355,233)"/>
<path d="M0 0 C4.72452167 2.834713 5.56266623 6.50626657 7 11.5625 C7.268125 12.67753906 7.53625 13.79257813 7.8125 14.94140625 C9.24701867 18.63623558 10.64875786 19.93469961 14 22 C16.47793736 22.70942637 16.47793736 22.70942637 19 22.9375 C22.5853644 23.55732455 24.00485905 24.00347075 27.0625 26.1875 C29.46397281 29.67350891 30.07431571 31.76400428 30 36 C27.06329114 41.46835443 27.06329114 41.46835443 24 43 C13.29595904 44.26211826 5.43691299 41.85425915 -3.12890625 35.39453125 C-8.90739468 30.14022536 -13.49205635 22.09394914 -14.2734375 14.2578125 C-14.54398413 5.91248951 -14.54398413 5.91248951 -12.0625 1.75 C-7.9034299 -0.62661148 -4.67676117 -0.99668681 0 0 Z " fill="#040202" transform="translate(189,177)"/>
<path d="M0 0 C3.0625 1.75 3.0625 1.75 5 5 C6.29641744 12.85953075 5.04700931 20.16044519 1 27 C-4.852367 35.14086897 -11.9852904 41.03145975 -22 43 C-27.33921618 43.55699722 -31.54610865 43.95956829 -36.125 40.9375 C-38.39713362 37.37782399 -39.07422031 35.23055793 -39 31 C-36.91906101 26.91519384 -35.20075993 24.73877609 -31 23 C-29.52813687 22.69193562 -28.04789707 22.4217654 -26.5625 22.1875 C-21.98989947 21.18137772 -19.75129412 19.96510035 -17 16 C-16.44768709 14.18174216 -15.95211579 12.34572545 -15.5 10.5 C-13.36887361 1.82327111 -8.96066412 -1.91204045 0 0 Z " fill="#040202" transform="translate(332,177)"/>
<path d="M0 0 C2.70004053 1.81484206 4.53997957 3.07995913 6 6 C6.42643727 9.75264796 6.16066519 11.68856281 4.4140625 15.07421875 C1.44030179 18.67833974 -0.42375432 19.10387098 -4.9375 20.0625 C-10.55791195 21.27073829 -13.18169826 22.68858425 -17 27 C-20.43227029 29.83535372 -22.07457446 30.98376446 -26.5625 31.0625 C-30.79716189 29.75360451 -32.48165527 28.66304688 -35 25 C-36.02537612 21.73040444 -35.96695061 19.28555262 -35 16 C-27.47703137 3.81646056 -14.19304638 -2.72875049 0 0 Z " fill="#050203" transform="translate(329,304)"/>
<path d="M0 0 C7.56609287 3.07046648 14.04715506 8.19336425 18.55078125 15.03515625 C19.73828125 18.66015625 19.73828125 18.66015625 19.55078125 22.03515625 C17.94991699 25.1775935 16.49985636 27.28244151 13.73828125 29.47265625 C10.33257325 30.34840973 7.93797833 29.9265239 4.55078125 29.03515625 C1.98828125 26.72265625 1.98828125 26.72265625 -0.44921875 24.03515625 C-4.10494606 21.05956425 -6.9369154 19.83071079 -11.51171875 19.09765625 C-14.98604682 18.47929922 -16.54075023 17.97474548 -19.57421875 15.97265625 C-21.80159298 12.4831033 -22.16685889 10.27215878 -21.94921875 6.19140625 C-21.14922622 2.74143847 -19.1932888 1.12587629 -16.44921875 -0.96484375 C-11.26949768 -3.55470428 -5.21171748 -1.70033271 0 0 Z " fill="#050203" transform="translate(199.44921875,304.96484375)"/>
<path d="M0 0 C2.9375 1.875 2.9375 1.875 5 5 C6.02870363 10.10170093 5.82533781 13.74948817 2.9375 18.125 C-0.76965476 20.491269 -2.66681677 20.60816607 -7 20 C-10.156814 18.80874943 -12.27820564 17.91864736 -14.375 15.25 C-15.29470285 11.93906974 -15.42036498 9.42297201 -15 6 C-10.64706076 0.58823771 -6.87207923 -0.71090475 0 0 Z " fill="#030102" transform="translate(453,246)"/>
</svg>
